<svg width="160" height="41" viewBox="0 0 160 41" fill="none" xmlns="http://www.w3.org/2000/svg">
<path d="M58.856 29.8581V15.4821H53.264V12.9381H67.544V15.4821H61.952V29.8581H58.856ZM67.5924 29.8581V20.8341C67.5924 20.3221 67.5764 19.8021 67.5444 19.2741C67.5284 18.7461 67.4884 18.2341 67.4244 17.7381H70.3284L70.6644 21.0501H70.1844C70.3444 20.2501 70.6084 19.5861 70.9764 19.0581C71.3604 18.5301 71.8244 18.1381 72.3684 17.8821C72.9124 17.6261 73.5044 17.4981 74.1444 17.4981C74.4324 17.4981 74.6644 17.5141 74.8404 17.5461C75.0164 17.5621 75.1924 17.6021 75.3684 17.6661L75.3444 20.3061C75.0404 20.1781 74.7764 20.0981 74.5524 20.0661C74.3444 20.0341 74.0804 20.0181 73.7604 20.0181C73.0724 20.0181 72.4884 20.1621 72.0084 20.4501C71.5444 20.7381 71.1924 21.1381 70.9524 21.6501C70.7284 22.1621 70.6164 22.7461 70.6164 23.4021V29.8581H67.5924ZM81.6011 30.0981C80.5451 30.0981 79.6171 29.8501 78.8171 29.3541C78.0171 28.8421 77.3931 28.1141 76.9451 27.1701C76.4971 26.2261 76.2731 25.0981 76.2731 23.7861C76.2731 22.4741 76.4971 21.3541 76.9451 20.4261C77.3931 19.4821 78.0171 18.7621 78.8171 18.2661C79.6171 17.7541 80.5451 17.4981 81.6011 17.4981C82.6251 17.4981 83.5211 17.7541 84.2891 18.2661C85.0731 18.7621 85.5931 19.4341 85.8491 20.2821H85.5851L85.8491 17.7381H88.7291C88.6811 18.2341 88.6331 18.7381 88.5851 19.2501C88.5531 19.7621 88.5371 20.2661 88.5371 20.7621V29.8581H85.5611L85.5371 27.3621H85.8251C85.5691 28.1941 85.0491 28.8581 84.2651 29.3541C83.4811 29.8501 82.5931 30.0981 81.6011 30.0981ZM82.4411 27.7941C83.3851 27.7941 84.1451 27.4661 84.7211 26.8101C85.2971 26.1381 85.5851 25.1301 85.5851 23.7861C85.5851 22.4421 85.2971 21.4421 84.7211 20.7861C84.1451 20.1301 83.3851 19.8021 82.4411 19.8021C81.4971 19.8021 80.7371 20.1301 80.1611 20.7861C79.5851 21.4421 79.2971 22.4421 79.2971 23.7861C79.2971 25.1301 79.5771 26.1381 80.1371 26.8101C80.7131 27.4661 81.4811 27.7941 82.4411 27.7941ZM92.6199 29.8581V19.9941H90.2919V17.7381H93.4599L92.6199 18.5061V16.6581C92.6199 15.1541 93.0039 14.0181 93.7719 13.2501C94.5559 12.4821 95.6999 12.0981 97.2039 12.0981C97.5559 12.0981 97.9239 12.1221 98.3079 12.1701C98.7079 12.2181 99.0519 12.3061 99.3399 12.4341V14.7861C99.1319 14.7061 98.8839 14.6421 98.5959 14.5941C98.3079 14.5461 98.0279 14.5221 97.7559 14.5221C97.3399 14.5221 96.9639 14.6021 96.6279 14.7621C96.3079 14.9221 96.0519 15.1701 95.8599 15.5061C95.6839 15.8261 95.5959 16.2581 95.5959 16.8021V18.2661L95.1639 17.7381H98.7879V19.9941H95.6199V29.8581H92.6199ZM105.203 30.0981C104.147 30.0981 103.219 29.8501 102.419 29.3541C101.619 28.8421 100.995 28.1141 100.547 27.1701C100.099 26.2261 99.8746 25.0981 99.8746 23.7861C99.8746 22.4741 100.099 21.3541 100.547 20.4261C100.995 19.4821 101.619 18.7621 102.419 18.2661C103.219 17.7541 104.147 17.4981 105.203 17.4981C106.227 17.4981 107.123 17.7541 107.891 18.2661C108.675 18.7621 109.195 19.4341 109.451 20.2821H109.187L109.451 17.7381H112.331C112.283 18.2341 112.235 18.7381 112.187 19.2501C112.155 19.7621 112.139 20.2661 112.139 20.7621V29.8581H109.163L109.139 27.3621H109.427C109.171 28.1941 108.651 28.8581 107.867 29.3541C107.083 29.8501 106.195 30.0981 105.203 30.0981ZM106.043 27.7941C106.987 27.7941 107.747 27.4661 108.323 26.8101C108.899 26.1381 109.187 25.1301 109.187 23.7861C109.187 22.4421 108.899 21.4421 108.323 20.7861C107.747 20.1301 106.987 19.8021 106.043 19.8021C105.099 19.8021 104.339 20.1301 103.763 20.7861C103.187 21.4421 102.899 22.4421 102.899 23.7861C102.899 25.1301 103.179 26.1381 103.739 26.8101C104.315 27.4661 105.083 27.7941 106.043 27.7941ZM115.405 29.8581V12.1941H118.405V29.8581H115.405ZM127.279 35.2341C126.159 35.2341 125.143 35.1141 124.231 34.8741C123.335 34.6341 122.535 34.2661 121.831 33.7701L122.479 31.6101C122.943 31.9141 123.423 32.1621 123.919 32.3541C124.415 32.5461 124.927 32.6901 125.455 32.7861C125.983 32.8821 126.519 32.9301 127.063 32.9301C128.183 32.9301 129.015 32.6501 129.559 32.0901C130.119 31.5461 130.399 30.7621 130.399 29.7381V26.8341H130.639C130.383 27.6661 129.863 28.3301 129.079 28.8261C128.311 29.3221 127.423 29.5701 126.415 29.5701C125.327 29.5701 124.375 29.3301 123.559 28.8501C122.759 28.3541 122.135 27.6501 121.687 26.7381C121.239 25.8261 121.015 24.7541 121.015 23.5221C121.015 22.2901 121.239 21.2261 121.687 20.3301C122.135 19.4181 122.759 18.7221 123.559 18.2421C124.375 17.7461 125.327 17.4981 126.415 17.4981C127.439 17.4981 128.327 17.7461 129.079 18.2421C129.847 18.7221 130.359 19.3781 130.615 20.2101L130.399 20.0661L130.639 17.7381H133.543C133.479 18.2341 133.431 18.7381 133.399 19.2501C133.367 19.7621 133.351 20.2661 133.351 20.7621V29.3781C133.351 31.2821 132.831 32.7301 131.791 33.7221C130.767 34.7301 129.263 35.2341 127.279 35.2341ZM127.231 27.2661C128.191 27.2661 128.951 26.9461 129.511 26.3061C130.087 25.6501 130.375 24.7221 130.375 23.5221C130.375 22.3221 130.087 21.4021 129.511 20.7621C128.951 20.1221 128.191 19.8021 127.231 19.8021C126.255 19.8021 125.479 20.1221 124.903 20.7621C124.327 21.4021 124.039 22.3221 124.039 23.5221C124.039 24.7221 124.327 25.6501 124.903 26.3061C125.479 26.9461 126.255 27.2661 127.231 27.2661ZM141.273 30.0981C140.217 30.0981 139.289 29.8501 138.489 29.3541C137.689 28.8421 137.065 28.1141 136.617 27.1701C136.169 26.2261 135.945 25.0981 135.945 23.7861C135.945 22.4741 136.169 21.3541 136.617 20.4261C137.065 19.4821 137.689 18.7621 138.489 18.2661C139.289 17.7541 140.217 17.4981 141.273 17.4981C142.297 17.4981 143.193 17.7541 143.961 18.2661C144.745 18.7621 145.265 19.4341 145.521 20.2821H145.257L145.521 17.7381H148.401C148.353 18.2341 148.305 18.7381 148.257 19.2501C148.225 19.7621 148.209 20.2661 148.209 20.7621V29.8581H145.233L145.209 27.3621H145.497C145.241 28.1941 144.721 28.8581 143.937 29.3541C143.153 29.8501 142.265 30.0981 141.273 30.0981ZM142.113 27.7941C143.057 27.7941 143.817 27.4661 144.393 26.8101C144.969 26.1381 145.257 25.1301 145.257 23.7861C145.257 22.4421 144.969 21.4421 144.393 20.7861C143.817 20.1301 143.057 19.8021 142.113 19.8021C141.169 19.8021 140.409 20.1301 139.833 20.7861C139.257 21.4421 138.969 22.4421 138.969 23.7861C138.969 25.1301 139.249 26.1381 139.809 26.8101C140.385 27.4661 141.153 27.7941 142.113 27.7941ZM151.452 29.8581V20.8341C151.452 20.3221 151.436 19.8021 151.404 19.2741C151.388 18.7461 151.348 18.2341 151.284 17.7381H154.188L154.524 21.0501H154.044C154.204 20.2501 154.468 19.5861 154.836 19.0581C155.22 18.5301 155.684 18.1381 156.228 17.8821C156.772 17.6261 157.364 17.4981 158.004 17.4981C158.292 17.4981 158.524 17.5141 158.7 17.5461C158.876 17.5621 159.052 17.6021 159.228 17.6661L159.204 20.3061C158.9 20.1781 158.636 20.0981 158.412 20.0661C158.204 20.0341 157.94 20.0181 157.62 20.0181C156.932 20.0181 156.348 20.1621 155.868 20.4501C155.404 20.7381 155.052 21.1381 154.812 21.6501C154.588 22.1621 154.476 22.7461 154.476 23.4021V29.8581H151.452Z" fill="#233348"/>
<ellipse cx="20.5" cy="20.0153" rx="20.5" ry="20.0153" fill="#458FF6"/>
<path d="M19.344 30.8818V15.3078H13.286V12.5518H28.756V15.3078H22.698V30.8818H19.344Z" fill="white"/>
</svg>
